<svg xmlns="http://www.w3.org/2000/svg" xmlns:xlink="http://www.w3.org/1999/xlink" viewBox="0 0 129.67 198.29"><defs><style>.cls-1{fill:none;}.cls-2{clip-path:url(#clip-path);}.cls-3{fill:#ffc8c1;}.cls-4{fill:url(#未命名的渐变_108);}.cls-5,.cls-6{fill:#d96966;}.cls-5{opacity:0.44;}.cls-6{opacity:0.5;}</style><clipPath id="clip-path"><path id="_剪贴路径_" data-name="&lt;剪贴路径&gt;" class="cls-1" d="M18.23,81.34C17.87,79,7.4,63,11.81,51.29,15.68,41,21.18,33.06,24.05,26.35c5.16-12.09-.61-20.9,10.51-20.92,2.82,0,10,.08,12.86,7.08,2.3,5.75-2.89,19.2-1.89,23,1.66-1.08,6.9-5,14.36-11.33C70.21,15.42,84.74,1,90.94,0c3.15-.49,11,3.85,9.81,6.53-2.28,5.36-7.6,10.38-15,18.35,10.44-5.51,20.69-9.42,26.25-9.43,6.53,0,12.13,7.36,6.62,12.28-2.86,2.55-21,10.17-24.42,12.67,5.19-1.62,23.64-6.68,26.93-5.72,4,1.18,7.87,7.87,4.52,12-1.92,2.37-22.61,10.19-25.1,12.3,1.32,4.63,23.76-4.89,26.65-2.91,3.07,2.11,3.08,7.67,1,10.74a20.18,20.18,0,0,1-8.42,6.72C106.43,78.93,101.52,82,95.37,84.83c-6.91,3.58-15.43,12.28-22.72,15.45-4.4,26.11-9.26,82.47-16.62,98-17.86-2.87-40.88-7.78-56-22.84C4.36,148.48,23.3,114.68,18.23,81.34Z"/></clipPath><linearGradient id="未命名的渐变_108" x1="83.66" y1="83.76" x2="118.97" y2="83.76" gradientTransform="translate(-45.75 64.68) rotate(-21.88)" gradientUnits="userSpaceOnUse"><stop offset="0" stop-color="#ed8d85"/><stop offset="1" stop-color="#d96966"/></linearGradient></defs><title>资源 20</title><g id="图层_2" data-name="图层 2"><g id="图层_1-2" data-name="图层 1"><g class="cls-2"><path id="_路径_" data-name="&lt;路径&gt;" class="cls-3" d="M18.23,81.34C17.87,79,7.4,63,11.81,51.29,15.68,41,21.18,33.06,24.05,26.35c5.16-12.09-.61-20.9,10.51-20.92,2.82,0,10,.08,12.86,7.08,2.3,5.75-2.89,19.2-1.89,23,1.66-1.08,6.9-5,14.36-11.33C70.21,15.42,84.74,1,90.94,0c3.15-.49,11,3.85,9.81,6.53-2.28,5.36-7.6,10.38-15,18.35,10.44-5.51,20.69-9.42,26.25-9.43,6.53,0,12.13,7.36,6.62,12.28-2.86,2.55-21,10.17-24.42,12.67,5.19-1.62,23.64-6.68,26.93-5.72,4,1.18,7.87,7.87,4.52,12-1.92,2.37-22.61,10.19-25.1,12.3,1.32,4.63,23.76-4.89,26.65-2.91,3.07,2.11,3.08,7.67,1,10.74a20.18,20.18,0,0,1-8.42,6.72C106.43,78.93,101.52,82,95.37,84.83c-6.91,3.58-15.43,12.28-22.72,15.45-4.4,26.11-9.26,82.47-16.62,98-17.86-2.87-40.88-7.78-56-22.84C4.36,148.48,23.3,114.68,18.23,81.34Z"/><path class="cls-4" d="M91.55,87.31c-12.1,6.35-21.61,12-31.43,7.46,4.71,7.57,9.42,26.51,9.08,31.65,2.45-13.54,1.24-16.07,3.45-26.14C76.71,99.18,91.55,87.31,91.55,87.31Z"/><path class="cls-5" d="M45.84,35.58a38.73,38.73,0,0,1,5.52,13.54c.56,3.74.86,7.54,1.2,9.07,1.49,6.65,10.27,5.54,11.5,1.49C65.61,54.55,56.36,42.76,45.84,35.58Z"/><path class="cls-6" d="M9.64,58.11c2.16,8.86,7.92,19.28,13,25.6-1.38,7-6.27,41.94-11,46.88,3.24-12.28,7.62-33.72,6.58-49.25C12.43,73.38,6,60.49,6.14,58,6.49,52.59,9.64,58.11,9.64,58.11Z"/></g></g></g></svg>